<svg xmlns="http://www.w3.org/2000/svg" xmlns:xlink="http://www.w3.org/1999/xlink" width="670.879" height="918.877" viewBox="0 0 670.879 918.877">
  <defs>
    <clipPath id="clip-path">
      <rect id="Rectangle_282" data-name="Rectangle 282" width="122.604" height="130.713" fill="none"/>
    </clipPath>
    <clipPath id="clip-path-2">
      <rect id="Rectangle_283" data-name="Rectangle 283" width="151.405" height="153.811" fill="none"/>
    </clipPath>
    <clipPath id="clip-path-3">
      <rect id="Rectangle_284" data-name="Rectangle 284" width="149.03" height="152.618" fill="none"/>
    </clipPath>
    <clipPath id="clip-path-4">
      <rect id="Rectangle_285" data-name="Rectangle 285" width="122.34" height="129.137" fill="none"/>
    </clipPath>
    <clipPath id="clip-path-5">
      <rect id="Rectangle_287" data-name="Rectangle 287" width="6.377" height="6.464" fill="none"/>
    </clipPath>
    <clipPath id="clip-path-6">
      <rect id="Rectangle_288" data-name="Rectangle 288" width="45.864" height="35.155" fill="none"/>
    </clipPath>
    <clipPath id="clip-path-7">
      <rect id="Rectangle_290" data-name="Rectangle 290" width="6.016" height="123.212" fill="none"/>
    </clipPath>
  </defs>
  <g id="Group_160519" data-name="Group 160519" transform="translate(-1135.598 -120.106)">
    <g id="Group_160517" data-name="Group 160517" transform="translate(1121 103.998)">
      <path id="Path_515" data-name="Path 515" d="M247.649,7.7A232,232,0,0,0,174.626,19.44l31.728,98.642a129.43,129.43,0,0,1,86.022,1.217l33.005-98.241A231.876,231.876,0,0,0,247.649,7.7" transform="translate(-0.12 8.404)" fill="#22d2b0"/>
      <path id="Path_516" data-name="Path 516" d="M384.8,186.49A231.59,231.59,0,0,0,345.626,57.353l-83.17,62.177a128.526,128.526,0,0,1,18.725,66.96Z" transform="translate(95.662 62.548)" fill="#22d2b0"/>
      <path id="Path_517" data-name="Path 517" d="M98.135,187.313H201.753a128.535,128.535,0,0,1,18.986-67.384L138.367,56.6A231.605,231.605,0,0,0,98.135,187.313" transform="translate(-83.537 61.724)" fill="#22d2b0"/>
      <path id="Path_518" data-name="Path 518" d="M117.38,103.8l82.369,63.331a129.978,129.978,0,0,1,69.034-55.167L237.055,13.318A234.01,234.01,0,0,0,117.38,103.8" transform="translate(-62.549 14.526)" fill="#22d2b0"/>
      <path id="Path_519" data-name="Path 519" d="M263.958,14.092l-33.006,98.241a130.041,130.041,0,0,1,65.862,54.375l83.168-62.177A234.115,234.115,0,0,0,263.958,14.092" transform="translate(61.305 15.37)" fill="#22d2b0"/>
      <g id="Group_160494" data-name="Group 160494" transform="translate(14.598 118.325)" opacity="0.5">
        <g id="Group_160493" data-name="Group 160493">
          <g id="Group_160492" data-name="Group 160492" clip-path="url(#clip-path)">
            <path id="Path_520" data-name="Path 520" d="M98.135,187.313H201.753a128.535,128.535,0,0,1,18.986-67.384L138.367,56.6A231.605,231.605,0,0,0,98.135,187.313" transform="translate(-98.135 -56.6)" fill="#fff"/>
          </g>
        </g>
      </g>
      <g id="Group_160497" data-name="Group 160497" transform="translate(54.831 27.844)" opacity="0.3">
        <g id="Group_160496" data-name="Group 160496">
          <g id="Group_160495" data-name="Group 160495" clip-path="url(#clip-path-2)">
            <path id="Path_521" data-name="Path 521" d="M117.38,103.8l82.369,63.331a129.978,129.978,0,0,1,69.034-55.167L237.055,13.318A234.01,234.01,0,0,0,117.38,103.8" transform="translate(-117.38 -13.318)" fill="#fff"/>
          </g>
        </g>
      </g>
      <g id="Group_160500" data-name="Group 160500" transform="translate(292.258 29.462)" opacity="0.3">
        <g id="Group_160499" data-name="Group 160499">
          <g id="Group_160498" data-name="Group 160498" clip-path="url(#clip-path-3)">
            <path id="Path_522" data-name="Path 522" d="M263.958,14.092l-33.006,98.241a130.041,130.041,0,0,1,65.862,54.375l83.168-62.177A234.115,234.115,0,0,0,263.958,14.092" transform="translate(-230.952 -14.092)"/>
          </g>
        </g>
      </g>
      <g id="Group_160503" data-name="Group 160503" transform="translate(358.12 119.901)" opacity="0.5">
        <g id="Group_160502" data-name="Group 160502">
          <g id="Group_160501" data-name="Group 160501" clip-path="url(#clip-path-4)">
            <path id="Path_523" data-name="Path 523" d="M384.8,186.49A231.59,231.59,0,0,0,345.626,57.353l-83.17,62.177a128.526,128.526,0,0,1,18.725,66.96Z" transform="translate(-262.458 -57.353)"/>
          </g>
        </g>
      </g>
      <path id="Path_525" data-name="Path 525" d="M207.549,134.938a18.568,18.568,0,1,1,24.942-8.21,18.564,18.564,0,0,1-24.942,8.21" transform="translate(24.653 108.827)" fill="#263238"/>
      <path id="Path_526" data-name="Path 526" d="M320.535,57.719h0a4.659,4.659,0,0,0-6.679-.157L201.742,161.138l13.191,15.491L320.457,64.13a4.658,4.658,0,0,0,.077-6.412" transform="translate(29.451 61.321)" fill="#263238"/>
      <path id="Path_527" data-name="Path 527" d="M207.549,134.938a18.568,18.568,0,1,1,24.942-8.21,18.564,18.564,0,0,1-24.942,8.21" transform="translate(24.653 108.827)" fill="#263238"/>
      <path id="Path_528" data-name="Path 528" d="M320.535,57.719h0a4.659,4.659,0,0,0-6.679-.157L201.742,161.138l13.191,15.491L320.457,64.13a4.658,4.658,0,0,0,.077-6.412" transform="translate(29.451 61.321)" fill="#263238"/>
      <path id="Path_529" data-name="Path 529" d="M288.633,105.285h3.711v7.12a12.1,12.1,0,0,1-7.1,2.233c-5.515,0-9.577-3.786-9.577-9.077s4.062-9.077,9.652-9.077a9.357,9.357,0,0,1,7.348,3.035l-2.609,2.406a5.94,5.94,0,0,0-4.537-1.982,5.617,5.617,0,1,0-.052,11.232,6.416,6.416,0,0,0,3.159-.753Z" transform="translate(110.074 105.222)" fill="#fff"/>
      <path id="Path_530" data-name="Path 530" d="M284.923,105.561c0-5.216,4.064-9.077,9.6-9.077,5.517,0,9.6,3.838,9.6,9.077s-4.085,9.077-9.6,9.077c-5.54,0-9.6-3.861-9.6-9.077m15.094,0a5.492,5.492,0,1,0-5.49,5.615,5.352,5.352,0,0,0,5.49-5.615" transform="translate(120.163 105.222)" fill="#fff"/>
      <path id="Path_531" data-name="Path 531" d="M295.051,105.561c0-5.216,4.064-9.077,9.6-9.077,5.517,0,9.6,3.838,9.6,9.077s-4.085,9.077-9.6,9.077c-5.54,0-9.6-3.861-9.6-9.077m15.094,0a5.492,5.492,0,1,0-5.49,5.615,5.352,5.352,0,0,0,5.49-5.615" transform="translate(131.208 105.222)" fill="#fff"/>
      <path id="Path_532" data-name="Path 532" d="M305.707,96.628h7.975c5.741,0,9.677,3.46,9.677,8.774s-3.936,8.776-9.677,8.776h-7.975Zm7.775,14.216c3.485,0,5.766-2.08,5.766-5.442s-2.281-5.44-5.766-5.44h-3.711v10.881Z" transform="translate(142.829 105.379)" fill="#fff"/>
      <path id="Path_533" data-name="Path 533" d="M123.482,97.6c0,3.911-2.933,6.343-7.622,6.343h-3.535v4.84h-4.062V91.228h7.6c4.689,0,7.622,2.431,7.622,6.368m-4.112,0c0-1.93-1.254-3.058-3.736-3.058h-3.309v6.092h3.309c2.481,0,3.736-1.127,3.736-3.033" transform="translate(-72.492 99.49)" fill="#fff"/>
      <path id="Path_534" data-name="Path 534" d="M116.519,100.16c0-5.216,4.064-9.077,9.6-9.077,5.517,0,9.6,3.838,9.6,9.077s-4.085,9.077-9.6,9.077c-5.54,0-9.6-3.861-9.6-9.077m15.094,0a5.492,5.492,0,1,0-5.49,5.615,5.354,5.354,0,0,0,5.49-5.615" transform="translate(-63.488 99.332)" fill="#fff"/>
      <path id="Path_535" data-name="Path 535" d="M126.647,100.16c0-5.216,4.064-9.077,9.6-9.077,5.517,0,9.6,3.838,9.6,9.077s-4.085,9.077-9.6,9.077c-5.54,0-9.6-3.861-9.6-9.077m15.094,0a5.492,5.492,0,1,0-5.49,5.615,5.354,5.354,0,0,0,5.49-5.615" transform="translate(-52.443 99.332)" fill="#fff"/>
      <path id="Path_536" data-name="Path 536" d="M148.485,108.778l-3.385-4.89h-3.736v4.89H137.3V91.228h7.6c4.689,0,7.622,2.431,7.622,6.368a5.7,5.7,0,0,1-3.61,5.54l3.936,5.642Zm-3.811-14.241h-3.309v6.117h3.309c2.484,0,3.736-1.152,3.736-3.058,0-1.93-1.252-3.058-3.736-3.058" transform="translate(-40.822 99.49)" fill="#fff"/>
    </g>
    <path id="Path_537" data-name="Path 537" d="M104.523,398.865l2.5,45.7S61.417,462.46,61.057,470.951l88.785-1.675-.978-71.367Z" transform="translate(1528.993 537.937)" fill="#263238"/>
    <path id="Path_538" data-name="Path 538" d="M71.451,418.212a3.625,3.625,0,0,1,2.584,4.091A3.483,3.483,0,0,1,70,424.9c-1.735-.406-3.274-2.653-2.716-4.346s2.908-3.048,4.495-2.237" transform="translate(1591.952 559.928)" fill="#e0e0e0"/>
    <path id="Path_539" data-name="Path 539" d="M149.886,435.8l-.38-7.189L64.521,432.9s-3.92,1.794-3.42,4.57Z" transform="translate(1528.949 571.416)" fill="#455a64"/>
    <path id="Path_540" data-name="Path 540" d="M78.317,420.248c.023.433,2.2.59,4.352,1.942,2.2,1.3,3.33,3.157,3.727,2.977.4-.092-.3-2.672-2.941-4.265-2.628-1.618-5.241-1.049-5.139-.654" transform="translate(1556.257 561.831)" fill="#fff"/>
    <path id="Path_541" data-name="Path 541" d="M83.784,422.049c-.092.422,1.8,1.125,3.307,2.931,1.56,1.76,1.969,3.736,2.4,3.709.41.061.661-2.484-1.254-4.693-1.9-2.226-4.451-2.36-4.453-1.946" transform="translate(1541.55 564.059)" fill="#fff"/>
    <path id="Path_542" data-name="Path 542" d="M92.452,431.2c.4.084.957-2.093-.2-4.446s-3.2-3.259-3.38-2.9c-.238.362,1.1,1.61,2.022,3.558.968,1.923,1.125,3.748,1.557,3.784" transform="translate(1527.803 566.151)" fill="#fff"/>
    <path id="Path_543" data-name="Path 543" d="M77.546,415.869c.188.391,2.166-.245,4.62-.123,2.456.071,4.38.857,4.6.481.245-.32-1.649-1.888-4.541-1.99-2.889-.123-4.9,1.3-4.679,1.633" transform="translate(1557.611 555.732)" fill="#fff"/>
    <path id="Path_544" data-name="Path 544" d="M15.27,396.213l4.808,55.165L11.3,496.107a5.674,5.674,0,0,0,9.736,4.942c7.915-8.63,36.871-40.517,36.292-44.533-.669-4.654-1.208-58.527-1.208-58.527Z" transform="translate(1725.742 536.086)" fill="#263238"/>
    <path id="Path_545" data-name="Path 545" d="M11.231,473.318l40.933-50.043.151,2.344a8.539,8.539,0,0,1-1.666,5.655c-3.245,4.348-12.466,16.16-34.371,40.255a5.662,5.662,0,0,1-5.047,1.79" transform="translate(1730.668 565.598)" fill="#455a64"/>
    <g id="Group_160508" data-name="Group 160508" transform="translate(1769.115 971.124)" opacity="0.6">
      <g id="Group_160507" data-name="Group 160507">
        <g id="Group_160506" data-name="Group 160506" clip-path="url(#clip-path-5)">
          <path id="Path_546" data-name="Path 546" d="M16.052,415.436a3.432,3.432,0,0,0-.65,4.534,3.3,3.3,0,0,0,4.488.684c1.34-1.022,1.8-3.56.663-4.8s-3.69-1.509-4.748-.194" transform="translate(-14.821 -414.785)" fill="#fff"/>
        </g>
      </g>
    </g>
    <path id="Path_547" data-name="Path 547" d="M37.133,438.309c-.3.174-1.735-2.642-5.122-3.987-3.345-1.449-6.347-.472-6.439-.809-.056-.134.615-.608,1.9-.872a9.042,9.042,0,0,1,8.943,3.709c.717,1.1.855,1.9.721,1.959" transform="translate(1715.845 575.652)" fill="#fff"/>
    <path id="Path_548" data-name="Path 548" d="M37.729,440.755c-.247.255-2.137-1.428-5.047-2.061-2.9-.7-5.331-.013-5.442-.351-.178-.272,2.406-1.614,5.713-.834,3.314.742,5.053,3.079,4.775,3.247" transform="translate(1711.79 580.858)" fill="#fff"/>
    <path id="Path_549" data-name="Path 549" d="M38.265,433.487c-.243.278-3.134-2.325-7.574-3.709-4.419-1.455-8.285-1.018-8.32-1.384-.109-.291,3.949-1.321,8.69.226,4.758,1.5,7.461,4.693,7.2,4.867" transform="translate(1721.432 570.52)" fill="#fff"/>
    <path id="Path_550" data-name="Path 550" d="M36.862,423.4c-.125.341-3.261-.74-7.242-.627-3.985.056-7.07,1.267-7.21.932-.169-.261,2.9-2.078,7.183-2.149,4.279-.109,7.428,1.576,7.269,1.844" transform="translate(1722.775 563.717)" fill="#fff"/>
    <path id="Path_551" data-name="Path 551" d="M37.623,415.777c-.151.33-3.339-1.315-7.522-.855-4.194.37-7,2.607-7.208,2.312-.1-.111.46-.843,1.687-1.66a12.362,12.362,0,0,1,11.063-1.093c1.363.56,2.055,1.169,1.98,1.3" transform="translate(1721.012 555.107)" fill="#fff"/>
    <path id="Path_552" data-name="Path 552" d="M32.2,418.612a4.765,4.765,0,0,1-.209-2.086,14.51,14.51,0,0,1,1.309-5.58,6.474,6.474,0,0,1,2.565-3.253,2.28,2.28,0,0,1,2.6.343,3.714,3.714,0,0,1,1.035,2.44,8.02,8.02,0,0,1-6.539,7.854,9.309,9.309,0,0,1-9.43-4.271,3.237,3.237,0,0,1-.324-2.67,2.24,2.24,0,0,1,2.262-1.332,7.942,7.942,0,0,1,3.761,1.658,16.284,16.284,0,0,1,4.047,4.051,4.965,4.965,0,0,1,.972,1.856c-.186.157-1.572-2.626-5.5-5.191a7.417,7.417,0,0,0-3.316-1.367,1.193,1.193,0,0,0-1.236.719,2.213,2.213,0,0,0,.316,1.741,8.3,8.3,0,0,0,8.218,3.608,6.963,6.963,0,0,0,5.647-6.587,2.681,2.681,0,0,0-.65-1.733,1.232,1.232,0,0,0-1.43-.209,5.827,5.827,0,0,0-2.222,2.714c-2.068,4.206-1.626,7.334-1.875,7.294" transform="translate(1718.811 548.325)" fill="#fff"/>
    <path id="Path_553" data-name="Path 553" d="M15.209,221.164a196.567,196.567,0,0,0-4.29,57.828c.945,12.288,42.415,352.266,42.415,352.266h55.993L93.588,311.726l4.585,1S128.738,449,131.232,471.067c2.241,19.831,28.017,163.915,28.017,163.915l51.2.587-16.35-190.58L175.066,262.121l-7.158-53.231Z" transform="translate(1574.323 331.803)" fill="#4338a0"/>
    <path id="Path_554" data-name="Path 554" d="M91.183,265.934a10.762,10.762,0,0,1-2.337,1.317,26.914,26.914,0,0,1-6.932,2.427,14.563,14.563,0,0,1-5.157.036,10.6,10.6,0,0,1-5.394-2.588,12.813,12.813,0,0,1-3.272-5.718c-.663-2.176-1.039-4.438-1.5-6.738-1.785-9.221-2.994-17.642-3.7-23.753-.353-3.056-.587-5.534-.717-7.25a11.654,11.654,0,0,1-.069-2.678,11.635,11.635,0,0,1,.529,2.624c.295,1.946.659,4.35,1.087,7.194.916,6.071,2.254,14.446,4.031,23.64.907,4.545,1.522,9.175,4.363,11.887,2.835,2.661,6.782,2.941,9.667,2.517a31.568,31.568,0,0,0,6.882-2.022,12.629,12.629,0,0,1,2.519-.895" transform="translate(1585.553 344.997)" fill="#263238"/>
    <path id="Path_555" data-name="Path 555" d="M70.967,221.94c-.019-.052.364-.293,1.15-.341A5.014,5.014,0,0,1,75.25,222.6a5.6,5.6,0,0,1,2.358,4.325,5.549,5.549,0,0,1-9.451,3.546,5.593,5.593,0,0,1-1.066-4.81,5.007,5.007,0,0,1,1.7-2.818c.627-.481,1.07-.55,1.091-.5.153.153-1.576.941-1.965,3.477a4.891,4.891,0,0,0,1.064,3.93,4.538,4.538,0,0,0,7.538-2.828,4.887,4.887,0,0,0-1.783-3.661c-1.961-1.654-3.782-1.11-3.767-1.325" transform="translate(1588.918 345.654)" fill="#263238"/>
    <path id="Path_556" data-name="Path 556" d="M71.024,242.309a6.05,6.05,0,0,1-1.907.3,35.9,35.9,0,0,1-5.251.059,50.852,50.852,0,0,1-31.438-13.241,35.781,35.781,0,0,1-3.625-3.8c-.782-.964-1.181-1.518-1.118-1.572.159-.138,1.957,1.921,5.3,4.741a56.474,56.474,0,0,0,30.946,13.037c4.355.418,7.085.266,7.1.477" transform="translate(1677.589 348.333)" fill="#263238"/>
    <path id="Path_557" data-name="Path 557" d="M120.148,222.252c.109.061-.738,2.329-2.588,5.709a63.453,63.453,0,0,1-8.651,12.046,58.2,58.2,0,0,1-10.969,9.372c-3.063,1.98-5.105,2.866-5.155,2.745-.077-.171,1.84-1.321,4.764-3.458a73.5,73.5,0,0,0,10.624-9.51,78.616,78.616,0,0,0,8.761-11.655c1.986-3.222,3.063-5.339,3.213-5.249" transform="translate(1492.355 346.372)" fill="#263238"/>
    <path id="Path_558" data-name="Path 558" d="M204.959,184.96c-5.916-2.247-12.625-4.5-12.625-4.5l-5.853-2.32a7.091,7.091,0,0,0,.065,1.263,4.736,4.736,0,0,1-.1,2.36c-.575,1.4-2.367,1.863-3.884,1.754a9.2,9.2,0,0,1-7.505-5.124,9.076,9.076,0,0,1,.644-8.69,6.633,6.633,0,0,1,.09-2.588c1.33-5.759,9.361-8.805,9.361-8.805l-1.932-1.1s-6.84-.811-13.037,8.82a7.055,7.055,0,0,1-3.987,3.021,3.584,3.584,0,0,1-3.038-.324c-2.306-1.564-1.783-3.594,2-9.658s9.46-10.668,14.253-11.065a47.911,47.911,0,0,1,6.69-.245s-16.873-10.917-17.91-11.651c-3.008-2.122-4.572-5.237-3.343-7.371.792-1.369,2.806-2.513,6.382-.151,3.1,2.047,37.515,18.986,37.515,18.986l14.782,8.383,11.069,8.9-14.481,19.678-1.693.594a19.683,19.683,0,0,1-13.471-.165" transform="translate(1233.667 242.743)" fill="#ffc09d"/>
    <path id="Path_559" data-name="Path 559" d="M201.654,146.456c-.688,2.063-3.178,3.006-5.364,2.923s-4.284-.9-6.462-1.135c-6.508-.713-12.838,3.757-19.306,2.734-.9-.142-1.967-.6-2.017-1.5-.046-.836.817-1.407,1.568-1.794l19.262-9.93" transform="translate(1252.561 254.223)" fill="#ffc09d"/>
    <path id="Path_560" data-name="Path 560" d="M189.94,137.757a8.751,8.751,0,0,0-2.193.861c-1.376.627-3.347,1.568-5.772,2.755-2.513,1.252-5.369,2.674-8.483,4.227q-1.2.605-2.446,1.238c-.744.449-1.919.711-2.473,2.1a1.807,1.807,0,0,0,.663,1.927,3.793,3.793,0,0,0,1.631.7,14.338,14.338,0,0,0,3.194.153c4.3-.3,7.963-1.927,11.4-2.588a16.474,16.474,0,0,1,4.875-.37c1.518.14,2.946.541,4.3.776,2.707.6,5.18,0,6.382-1.045,1.256-1.037,1.3-2.045,1.248-2.022-.111-.059-.324.83-1.532,1.635a7.439,7.439,0,0,1-5.925.581c-1.3-.276-2.716-.734-4.361-.939a16.947,16.947,0,0,0-5.205.276c-3.583.64-7.271,2.21-11.247,2.471a13.438,13.438,0,0,1-2.887-.125c-.888-.155-1.56-.654-1.363-1.1.138-.512,1.022-.97,1.85-1.388l2.427-1.273,8.362-4.461c2.373-1.284,4.281-2.343,5.59-3.1a8.706,8.706,0,0,0,1.971-1.286" transform="translate(1251.956 254.217)" fill="#ff9b6c"/>
    <path id="Path_562" data-name="Path 562" d="M183.244,131.079a22.531,22.531,0,0,1,3.37,2.149l7.971,5.373c3.025,1.973,5.759,3.757,8.055,5.256a22.555,22.555,0,0,1,3.288,2.266,17.928,17.928,0,0,1-3.583-1.789c-2.151-1.215-5.063-2.994-8.205-5.074s-5.908-4.072-7.86-5.58a17.853,17.853,0,0,1-3.035-2.6" transform="translate(1217.475 246.94)" fill="#ff9b6c"/>
    <path id="Path_563" data-name="Path 563" d="M194.006,145.008c.029.052-.362.282-1.026.719a3.7,3.7,0,0,0-1.84,2.477,1.966,1.966,0,0,0,.817,1.779,10.546,10.546,0,0,0,2.272,1.273,4.463,4.463,0,0,1,2.362,2.124,3.765,3.765,0,0,1-.374,3.412,4.35,4.35,0,0,1-2.883,1.858,5.485,5.485,0,0,1-3.159-.307,17.555,17.555,0,0,1-4.248-2.891,10.258,10.258,0,0,1-2.2-2.665,2.27,2.27,0,0,1-.362-1.215c.069-.019.2.406.629,1.058a12.183,12.183,0,0,0,2.3,2.4,18.8,18.8,0,0,0,4.164,2.642c1.57.638,4,.372,5.078-1.3a3.027,3.027,0,0,0,.326-2.693,3.826,3.826,0,0,0-1.973-1.771,10.692,10.692,0,0,1-2.381-1.432,2.549,2.549,0,0,1-.932-2.343,3.871,3.871,0,0,1,2.239-2.67,3.256,3.256,0,0,1,1.185-.454" transform="translate(1226.315 262.128)" fill="#ff9b6c"/>
    <path id="Path_565" data-name="Path 565" d="M174.441,156c-.063-.036.217-.715,1.089-1.576a7.593,7.593,0,0,1,4.436-2.076l-.209.667a22.155,22.155,0,0,1-1.99-1.84c-3.673-3.811-4.9-8.021-4.7-8.044.22-.107,1.741,3.836,5.281,7.5.636.663,1.284,1.271,1.9,1.806l.686.592-.9.075a7.98,7.98,0,0,0-4.192,1.679c-.9.709-1.319,1.279-1.4,1.219" transform="translate(1263.785 260.086)" fill="#ff9b6c"/>
    <path id="Path_567" data-name="Path 567" d="M126.234,47.426c-.968-8.5-6.5-13.44-14.094-17.374a26.674,26.674,0,0,0-24.637.28c-5.015,2.747-9.288,7.194-14.91,8.245-9.255,1.733-18.57-6.405-27.6-3.727a12.538,12.538,0,0,0-8.64,12.786A12.54,12.54,0,0,0,47.235,58.579c-6.056,1.231-9.073,9.15-6.491,14.763s9.18,8.58,15.357,8.364,11.96-3.071,17.119-6.47,9.93-7.407,15.345-10.386,11.728-4.9,17.78-3.65c8.193,1.691,14.343,8.985,16.908,16.95s2.141,16.551,1.355,24.88-1.9,16.749-.646,25.02a3.1,3.1,0,0,0,1.313,2.5c1.279.615,2.634-.638,3.485-1.773a122.759,122.759,0,0,0,20.673-43.046c2.314-9.012,3.378-17.717-.493-26.178S133.206,43.5,126.234,47.426" transform="translate(1579.063 133.635)" fill="#263238"/>
    <path id="Path_568" data-name="Path 568" d="M129.938,82.124l-8.866,84.966c-1.658,15.865-16.34,43.176-41.3,39.415l.627-1.363c-21.413-4.9-16.009-30.319-14.324-49.161h0s-23.519-4.712-22.781-28.4c.357-11.446,3.01-34.964,5.659-56.21A44.14,44.14,0,0,1,94.683,32.756l2.285.1c24.568,2.511,36.16,24.779,32.97,49.27" transform="translate(1585.56 139.676)" fill="#ffc09d"/>
    <path id="Path_569" data-name="Path 569" d="M59.7,95.732s14.885,1.524,31.22-7.771c0,0-8.247,18.035-31.778,14.874Z" transform="translate(1591.934 199.925)" fill="#ff9b6c"/>
    <path id="Path_570" data-name="Path 570" d="M74.587,63.787A3.379,3.379,0,0,0,77.7,67.339a3.234,3.234,0,0,0,3.619-2.893,3.389,3.389,0,0,0-3.109-3.558,3.24,3.24,0,0,0-3.621,2.9" transform="translate(1569.244 170.382)" fill="#263238"/>
    <path id="Path_571" data-name="Path 571" d="M73.721,58.575c.4.46,3.044-1.323,6.681-1.154,3.638.115,6.226,2.1,6.64,1.675.2-.188-.19-1-1.315-1.9a9.28,9.28,0,0,0-5.291-1.886,8.9,8.9,0,0,0-5.343,1.472c-1.156.809-1.568,1.589-1.371,1.794" transform="translate(1565.367 164.31)" fill="#263238"/>
    <path id="Path_572" data-name="Path 572" d="M59.146,64.411a3.382,3.382,0,0,0,3.111,3.552,3.236,3.236,0,0,0,3.619-2.9,3.384,3.384,0,0,0-3.109-3.554,3.237,3.237,0,0,0-3.621,2.9" transform="translate(1616.965 171.065)" fill="#263238"/>
    <path id="Path_573" data-name="Path 573" d="M56.628,59.646c.4.46,3.048-1.323,6.683-1.156,3.635.115,6.224,2.1,6.637,1.675.2-.188-.186-1-1.315-1.9a9.28,9.28,0,0,0-5.291-1.888A8.941,8.941,0,0,0,58,57.848c-1.152.811-1.568,1.593-1.371,1.8" transform="translate(1618.191 165.476)" fill="#263238"/>
    <path id="Path_574" data-name="Path 574" d="M77.569,86.345c.027-.2-2.218-.7-5.862-1.323-.926-.136-1.8-.36-1.925-1a4.732,4.732,0,0,1,.74-2.728q1.458-3.315,3.054-6.953c4.254-9.907,7.378-18.066,6.976-18.236S76.38,63.83,72.125,73.737q-1.54,3.666-2.941,7c-.4,1.041-1.054,2.212-.64,3.625a2.332,2.332,0,0,0,1.468,1.426,6.37,6.37,0,0,0,1.568.288c3.679.357,5.966.475,5.989.268" transform="translate(1582.871 165.182)" fill="#263238"/>
    <path id="Path_575" data-name="Path 575" d="M55.236,52.369c.316,1.006,3.97.694,8.214,1.394,4.261.615,7.649,2.015,8.253,1.152.272-.414-.288-1.369-1.639-2.387a14.473,14.473,0,0,0-12.545-1.94c-1.6.562-2.417,1.3-2.283,1.781" transform="translate(1619.263 158.454)" fill="#263238"/>
    <path id="Path_576" data-name="Path 576" d="M73.352,53.687c.6.855,3.146.107,6.163.2,3.019-.015,5.542.8,6.167-.042.274-.408-.09-1.252-1.171-2.084a8.927,8.927,0,0,0-9.936-.123c-1.1.8-1.488,1.637-1.223,2.053" transform="translate(1567.532 158.728)" fill="#263238"/>
    <path id="Path_577" data-name="Path 577" d="M39.417,64.973c.412-.157,16.476-4.1,15.255,12.06s-17.2,11.6-17.191,11.136,1.936-23.2,1.936-23.2" transform="translate(1673.383 174.272)" fill="#ffc09d"/>
    <path id="Path_578" data-name="Path 578" d="M39.489,79.593c.075-.046.268.217.728.472a2.828,2.828,0,0,0,2.1.2c1.754-.5,3.4-3.1,3.7-6.006a9.3,9.3,0,0,0-.485-4.091,3.259,3.259,0,0,0-1.955-2.323,1.439,1.439,0,0,0-1.718.646c-.251.437-.174.765-.261.788-.048.038-.326-.3-.144-.955a1.79,1.79,0,0,1,.711-.964,2.139,2.139,0,0,1,1.589-.295A3.965,3.965,0,0,1,46.5,69.8a9.577,9.577,0,0,1,.636,4.58c-.349,3.249-2.247,6.169-4.635,6.669a3.029,3.029,0,0,1-2.542-.623c-.47-.437-.529-.8-.47-.83" transform="translate(1676.776 177.098)" fill="#ff9b6c"/>
    <path id="Path_579" data-name="Path 579" d="M47.485,51.418C49.8,46.859,53.713,43.3,57.923,40.4A52.808,52.808,0,0,1,88.985,30.8c11.015.311,22,4.743,29.625,12.7a45.378,45.378,0,0,1,11.46,23.422,66.657,66.657,0,0,1-.987,26.259c-.847,3.778-2.057,7.683-4.85,10.363-1.746,1.672-4.662,2.7-6.512,1.144A6.448,6.448,0,0,1,116,100.866c-2.571-12.629-5.059-26.19.04-38.023a37.174,37.174,0,0,0-10.7-10.731c-4.344-2.651-9.7-3.936-14.619-2.651C83.4,51.368,78.655,58.194,72.685,62.827a34.223,34.223,0,0,1-30.672,5.519Z" transform="translate(1587.698 137.566)" fill="#263238"/>
    <path id="Path_580" data-name="Path 580" d="M66.171,76.743A16.071,16.071,0,0,0,67.624,81.1a5.439,5.439,0,0,0,3.483,2.791,4.877,4.877,0,0,0,4.411-1.608,7.79,7.79,0,0,0,1.833-4.463c.155-1.472-.253-3.316-1.679-3.707a3.682,3.682,0,0,0-1.821.125l-8.1,1.944" transform="translate(1591.639 184.74)" fill="#ff9b6c"/>
    <path id="Path_581" data-name="Path 581" d="M69.42,83.844c.075-.234,1.647.7,4.148.111a5.9,5.9,0,0,0,3.5-2.333,6.191,6.191,0,0,0,.853-4.975,5.534,5.534,0,0,0-.493-1.244c-.255-.364-.2-.341-.537-.341-.324.036-.861.2-1.3.295l-1.33.322c-1.735.414-3.3.769-4.62,1.047-2.64.56-4.3.811-4.344.627s1.522-.771,4.1-1.57c1.288-.4,2.829-.849,4.545-1.334l1.319-.366a13.359,13.359,0,0,1,1.48-.364,1.8,1.8,0,0,1,1.127.2,2.082,2.082,0,0,1,.742.792,6.519,6.519,0,0,1,.64,1.574A7.238,7.238,0,0,1,78.1,82.362a6.605,6.605,0,0,1-4.346,2.55,6.25,6.25,0,0,1-3.328-.37c-.728-.316-1.045-.625-1-.7" transform="translate(1590.492 184.376)" fill="#263238"/>
    <path id="Path_582" data-name="Path 582" d="M49.211,32.559a4.285,4.285,0,0,0-.257,1.072,10.727,10.727,0,0,0,.073,3.171,14.835,14.835,0,0,0,6.378,9.525c4.125,2.908,10.436,3.813,16.81,2.465,6.466-1.263,12.8-4.76,19.448-7.95,6.617-3.188,13.522-5.477,19.85-4.685a25.363,25.363,0,0,1,14.765,7.371,33.9,33.9,0,0,1,6.656,9.226c1.169,2.444,1.61,3.89,1.712,3.855a4.276,4.276,0,0,0-.261-1.066,26.747,26.747,0,0,0-1.079-2.962A32.2,32.2,0,0,0,126.8,43,25.8,25.8,0,0,0,111.626,35.2c-6.617-.878-13.741,1.482-20.414,4.7-6.7,3.219-12.932,6.681-19.191,7.95-6.186,1.359-12.236.55-16.2-2.134a14.707,14.707,0,0,1-6.391-8.983,16.2,16.2,0,0,1-.217-4.166" transform="translate(1569.659 139.507)" fill="#455a64"/>
    <path id="Path_583" data-name="Path 583" d="M57.49,63.486c.111-.017.01-1.754-.88-4.4a27.851,27.851,0,0,0-9.832-13.448,10.147,10.147,0,0,0-4.532-2.059,5.369,5.369,0,0,0-3.328.569c-.7.414-.945.8-.9.842a6.168,6.168,0,0,1,4.11-.677c2.559.5,5.548,3.054,8.281,6.081a32.043,32.043,0,0,1,5.509,8.952c1.043,2.507,1.4,4.175,1.576,4.137" transform="translate(1669.491 151.471)" fill="#455a64"/>
    <path id="Path_584" data-name="Path 584" d="M59.8,71.042c.111-.025-.134-1.754-1.162-4.365A29.964,29.964,0,0,0,43.955,51.015c-2.542-1.2-4.25-1.549-4.281-1.44-.059.165,1.549.767,3.939,2.1a34.388,34.388,0,0,1,14.345,15.3c1.175,2.469,1.672,4.114,1.842,4.066" transform="translate(1663.717 158.043)" fill="#455a64"/>
    <path id="Path_585" data-name="Path 585" d="M147.009,93.26l-28.373,22.225L100.668,138.3,94.1,114.646,89.392,96.1l-7.729,7.664L62.079,145.467,40.051,347.049S78.473,358.3,98.375,359.666s51.618-4.091,51.618-4.091V249.513l11.3-105.037-13.626-40.249Z" transform="translate(1561.462 205.704)" fill="#f5f5f5"/>
    <path id="Path_586" data-name="Path 586" d="M68.91,334.308a2.815,2.815,0,0,0,.056-.564c.021-.416.046-.966.082-1.662.054-1.509.134-3.652.232-6.387.19-5.6.46-13.609.792-23.489.688-19.835,1.779-47.229,3.339-77.467s3.314-57.611,4.677-77.411c.688-9.861,1.246-17.859,1.637-23.445.182-2.73.326-4.869.426-6.376.038-.694.069-1.244.09-1.66a3.052,3.052,0,0,0,0-.567,2.8,2.8,0,0,0-.088.56c-.044.414-.1.962-.171,1.654-.138,1.505-.334,3.64-.583,6.364-.493,5.527-1.146,13.532-1.9,23.429-1.514,19.791-3.349,47.154-4.919,77.408s-2.559,57.651-3.1,77.492c-.272,9.92-.447,17.949-.529,23.5-.033,2.737-.059,4.879-.077,6.393v1.662a2.942,2.942,0,0,0,.029.566" transform="translate(1582.226 229.717)" fill="#263238"/>
    <path id="Path_587" data-name="Path 587" d="M31.158,102.02l6.566,9.039L91.454,139.34l-29.9,91.2L53.5,281.685,83.7,403.189S47.053,415.8,43.831,411.771c-1.357-1.693-5.2-10.436-9.207-20A214.418,214.418,0,0,1,19.238,332.1c-2.243-20.686-4.3-47.054-2.8-64.913,2.82-33.428,7.25-88.605,7.653-103.1s2.966-69.243,2.966-69.243Z" transform="translate(1681.726 207.428)" fill="#22d2b0"/>
    <path id="Path_588" data-name="Path 588" d="M162.479,95.705,144.7,106.089,87.132,125.006l4.61,40.715,2.64,105.357L76.259,397.539s19.331,6.847,26.985,4.026,18.123-20.136,18.526-30.608,15.3-111.963,15.3-111.963l14.5-136.529Z" transform="translate(1484.576 208.37)" fill="#22d2b0"/>
    <path id="Path_589" data-name="Path 589" d="M96.575,100.644a6.337,6.337,0,0,0-.721.811l-1.99,2.44c-1.76,2.2-4.256,5.329-7.39,9.255l-.157.2.2.155c1.869,1.419,3.98,3.025,6.261,4.754l.086-.516-7.348,2.325-.232.073,0,.247c.138,13.1.316,29.587.506,47.462.318,21.819.606,41.566.815,55.941.144,7.106.259,12.88.343,16.95.056,1.95.1,3.489.134,4.608.023.487.042.88.056,1.2a1.457,1.457,0,0,0,.048.408,1.631,1.631,0,0,0,.038-.41c.006-.318.015-.713.025-1.2,0-1.118.013-2.659.021-4.61-.019-4.07-.046-9.846-.079-16.952-.148-14.375-.349-34.124-.573-55.943-.255-17.876-.489-34.366-.673-47.462l-.23.318,7.327-2.392.546-.178-.46-.341c-2.3-1.7-4.43-3.282-6.318-4.679l.048.351c3.056-3.985,5.492-7.16,7.206-9.4l1.888-2.517a6.509,6.509,0,0,0,.615-.9" transform="translate(1531.602 213.756)" fill="#263238"/>
    <path id="Path_590" data-name="Path 590" d="M38.745,246.854a1.737,1.737,0,0,0,.155-.393c.1-.312.226-.7.383-1.175.355-1.091.845-2.6,1.465-4.513,1.286-3.913,3.194-9.564,5.642-16.513,1.244-3.477,2.6-7.275,4.06-11.35a136.513,136.513,0,0,0,4.129-13.237,299.449,299.449,0,0,0,5.772-31.2c1.992-14.519,3.282-28.208,4.066-39.984l.013-.167-.119-.115q-3.333-3.211-6.332-6.106l-.031.5,6-4.568.236-.18-.174-.234c-4.549-6.165-8.241-11.172-10.842-14.7-1.263-1.683-2.26-3.01-2.981-3.97-.324-.416-.583-.753-.792-1.02a1.7,1.7,0,0,0-.295-.33,1.819,1.819,0,0,0,.224.38c.192.282.431.633.725,1.07.69.98,1.643,2.339,2.854,4.064,2.548,3.56,6.167,8.621,10.626,14.853l.061-.414c-1.894,1.417-3.9,2.916-6.042,4.518l-.309.23.278.27q2.985,2.919,6.29,6.148l-.109-.28c-.851,11.747-2.178,25.425-4.169,39.917a310.669,310.669,0,0,1-5.693,31.13q-1.806,7.074-4.035,13.191c-1.424,4.089-2.751,7.9-3.966,11.389-2.379,6.978-4.2,12.66-5.4,16.609-.6,1.973-1.037,3.514-1.319,4.564-.123.487-.224.88-.3,1.2a1.521,1.521,0,0,0-.073.416" transform="translate(1661.058 210.436)" fill="#263238"/>
    <g id="Group_160511" data-name="Group 160511" transform="translate(1700.081 512.372)" opacity="0.3">
      <g id="Group_160510" data-name="Group 160510">
        <g id="Group_160509" data-name="Group 160509" clip-path="url(#clip-path-6)">
          <path id="Path_591" data-name="Path 591" d="M74.82,215.49,43.562,227.749l-2.084-6.964L30.86,230.5l-1.9-16.881,9.8-18.271,33.777,10.942Z" transform="translate(-28.956 -195.342)"/>
        </g>
      </g>
    </g>
    <path id="Path_592" data-name="Path 592" d="M44.082,225.573l12.685-7.7,11.145-10.1a28.137,28.137,0,0,1-8.669,4.716c-5.224,1.741-8.17-3.056-8.17-3.056s4.572-2.883,6.138-3.755S74.6,193.013,78.6,192.141s30.449-6.263,30.449-6.263l.418,1.367,13.07,27.859-11.615,3.119a77.309,77.309,0,0,0-5.92,9.75c-2.611,5.224-15.286,10.373-20.167,12.936s-10.4-1.923-10.4-1.923c-5.6,1.284-6.991-4.741-6.991-4.741-6.443-.87-6.993-7.886-6.993-7.886s-11.7,4.534-15.3,5.17a2.2,2.2,0,0,1-2.657-1.4,3.706,3.706,0,0,1,1.587-4.559" transform="translate(1595.673 306.707)" fill="#ffc09d"/>
    <path id="Path_593" data-name="Path 593" d="M65.23,209.449c.092.188,3.46-1.16,7.394-3.322,3.951-2.153,6.74-4.557,6.589-4.733s-3.09,1.884-6.991,4.01-7.1,3.824-6.993,4.045" transform="translate(1590.898 323.617)" fill="#ff9b6c"/>
    <path id="Path_594" data-name="Path 594" d="M76.234,204.756c-.123-.213-3.46,1.645-7.29,4.321s-6.966,4.754-6.859,4.944c.115.211,3.487-1.587,7.327-4.263s6.926-4.819,6.821-5" transform="translate(1600.454 327.276)" fill="#ff9b6c"/>
    <path id="Path_595" data-name="Path 595" d="M71.289,207.326c-.153-.148-2.6,1.89-5.877,4.093-3.265,2.222-5.874,4.127-5.736,4.329.121.174,2.914-1.409,6.207-3.648,3.316-2.226,5.584-4.608,5.406-4.775" transform="translate(1610.436 330.089)" fill="#ff9b6c"/>
    <path id="Path_596" data-name="Path 596" d="M76.59,191.052a7.155,7.155,0,0,0-2.826.61,21.634,21.634,0,0,0-6.092,3.4,28.586,28.586,0,0,0-4.894,4.957,8.366,8.366,0,0,0-1.539,2.438c.222.178,2.76-3.437,6.943-6.742,4.171-3.37,8.488-4.426,8.408-4.666" transform="translate(1601.882 312.319)" fill="#ff9b6c"/>
    <path id="Path_597" data-name="Path 597" d="M101.717,268.934a11.9,11.9,0,0,0,5.594-9.685,108.346,108.346,0,0,0-.951-16.5c-2.233-18.6-32.681-126.6-32.681-126.6L43.063,200.314l10.513,36.643L0,262.61l14.916,42.1s71.187-26.05,86.8-35.771" transform="translate(1699.126 230.663)" fill="#22d2b0"/>
    <path id="Path_598" data-name="Path 598" d="M226.9,109.72,177.725,203.2l-1.321,1.919L122.779,177.75l-17.661,35.721,72.155,43.811a18,18,0,0,0,24.171-5.437l31.891-47.6,8.577-39.12Z" transform="translate(1344.812 223.654)" fill="#22d2b0"/>
    <path id="Path_599" data-name="Path 599" d="M109.378,122.477a6.273,6.273,0,0,0-.1,1.177c-.027.853-.065,1.978-.111,3.38-.056,3.025-.134,7.25-.228,12.43-.134,10.5-.188,25-.036,41.016s.491,30.524.828,41.016c.194,5.176.351,9.4.466,12.422.073,1.4.132,2.525.178,3.376a6.107,6.107,0,0,0,.117,1.175,6.266,6.266,0,0,0,.048-1.179c0-.853-.013-1.978-.021-3.38-.05-3.027-.119-7.25-.2-12.428-.186-10.495-.426-24.992-.583-41.01s-.19-30.509-.207-41.006c-.015-5.18-.027-9.4-.036-12.43-.019-1.4-.033-2.527-.044-3.38a6.222,6.222,0,0,0-.071-1.179" transform="translate(1468.451 237.566)" fill="#263238"/>
    <path id="Path_600" data-name="Path 600" d="M44.81,127.331a4.567,4.567,0,0,0-.341.943c-.211.713-.483,1.624-.819,2.749-.707,2.5-1.683,5.937-2.874,10.145-2.392,8.575-5.67,20.433-9,33.608s-5.968,25.208-7.628,33.961c-.832,4.376-1.459,7.925-1.838,10.388-.174,1.16-.314,2.1-.424,2.835a4.471,4.471,0,0,0-.092,1,4.773,4.773,0,0,0,.257-.97c.148-.728.341-1.658.577-2.808.514-2.544,1.225-6.046,2.093-10.329,1.806-8.715,4.53-20.7,7.856-33.873s6.52-25.043,8.766-33.658c1.087-4.235,1.976-7.7,2.622-10.214l.669-2.789a4.625,4.625,0,0,0,.18-.987" transform="translate(1716.127 242.859)" fill="#263238"/>
    <path id="Path_601" data-name="Path 601" d="M95.665,215.391a1.48,1.48,0,0,0-.349.1c-.261.092-.592.209-1,.357l-3.859,1.445-14.4,5.532-49.6,19.321.518.236c-3.115-8.812-6.491-18.357-9.989-28.245-1.672-4.716-3.318-9.353-4.913-13.854l-.209.506,52.955-25.567-.038.015a30.693,30.693,0,0,1,21.76.922,39.142,39.142,0,0,1,5.373,2.824c.552.364.989.65,1.323.872a2.865,2.865,0,0,0,.468.276,2.638,2.638,0,0,0-.418-.345c-.324-.238-.746-.55-1.279-.941a35.287,35.287,0,0,0-5.337-2.983,30.843,30.843,0,0,0-9.338-2.517,31.606,31.606,0,0,0-12.729,1.334l-.019.006-.021.01C50.515,181.41,32.1,190.211,11.512,200.049l-.33.159.123.347c1.593,4.5,3.234,9.142,4.9,13.858,3.508,9.884,6.9,19.425,10.022,28.235l.138.387.38-.151,49.489-19.6,14.314-5.745,3.811-1.568.976-.418a1.435,1.435,0,0,0,.324-.165" transform="translate(1687.436 292.854)" fill="#263238"/>
    <path id="Path_602" data-name="Path 602" d="M134.9,154.9a12.318,12.318,0,0,0-.132,3.679,57.387,57.387,0,0,0,1.244,8.782c.709,3.385,1.432,6.416,1.915,8.621a18.72,18.72,0,0,0,.9,3.552,14.252,14.252,0,0,0-.326-3.66c-.337-2.243-.974-5.31-1.679-8.68s-1.227-6.428-1.472-8.663a23.68,23.68,0,0,0-.452-3.631" transform="translate(1385.939 272.923)" fill="#263238"/>
    <path id="Path_603" data-name="Path 603" d="M133.8,155.979c-.224.069.847,3.916,2.592,8.492s3.155,8.268,3.368,8.2-.847-3.916-2.592-8.494-3.155-8.266-3.368-8.2" transform="translate(1387.046 274.101)" fill="#263238"/>
    <path id="Path_604" data-name="Path 604" d="M46.73,128.846a10.957,10.957,0,0,0,1.509-1.365c1.026-1.02,2.367-2.35,4-3.97,3.456-3.531,8.132-8.31,13.49-13.781l-.587-.021a17.374,17.374,0,0,1,3.813,11.73l-.054.932.715-.581c6.828-5.532,12.353-10.957,16.49-14.659,2.049-1.869,3.713-3.355,4.867-4.365a15.641,15.641,0,0,0,1.754-1.614,13.177,13.177,0,0,0-1.944,1.384c-1.219.941-2.937,2.366-5.04,4.183-4.238,3.6-9.849,8.962-16.634,14.425l.667.351a18.018,18.018,0,0,0-4.026-12.315l-.288-.332-.3.314c-5.272,5.552-9.88,10.4-13.285,13.984-1.557,1.691-2.841,3.077-3.824,4.139a11.855,11.855,0,0,0-1.315,1.562" transform="translate(1616.067 214.309)" fill="#263238"/>
    <path id="Path_605" data-name="Path 605" d="M69.352,99.983a4.638,4.638,0,0,0-.065,1.271c.006.822.048,2.026.165,3.537a74.238,74.238,0,0,0,2,12.163l.249,1,.472-.92a29.691,29.691,0,0,1,5.228-7.212c.6-.608,1.215-1.181,1.815-1.7l-.669-.224a112.767,112.767,0,0,0,4.877,16.112c.773,1.984,1.453,3.556,1.95,4.626a7.987,7.987,0,0,0,.853,1.622,8.629,8.629,0,0,0-.571-1.739c-.458-1.256-1.029-2.829-1.708-4.7a140.156,140.156,0,0,1-4.6-16.1l-.146-.671-.523.447c-.619.531-1.254,1.118-1.869,1.744a29.412,29.412,0,0,0-5.331,7.442l.721.079a90.351,90.351,0,0,1-2.275-12.019c-.362-2.994-.475-4.764-.575-4.76" transform="translate(1575.397 213.035)" fill="#263238"/>
    <path id="Path_606" data-name="Path 606" d="M132.74,202.323l-4.8,14.92-27.177-2.511,8.473-14.255Z" transform="translate(1463.089 322.628)" fill="#22d2b0"/>
    <path id="Path_607" data-name="Path 607" d="M133.43,202.527a12.787,12.787,0,0,0-1.62-.207c-1.21-.119-2.8-.276-4.756-.47-4.114-.4-10.045-.955-17.1-1.541l-.23-.019-.119.2c-2.58,4.315-5.463,9.14-8.508,14.235l-.337.562.654.061c.441.04.918.084,1.394.13l25.791,2.291.259.023.077-.247c1.459-4.66,2.594-8.46,3.366-11.051.355-1.208.644-2.193.872-2.971a6.129,6.129,0,0,0,.255-1,10.37,10.37,0,0,0-.418,1.093c-.274.786-.623,1.781-1.049,3-.9,2.663-2.141,6.307-3.64,10.727l.337-.224c-7.035-.673-16.005-1.534-25.772-2.471-.479-.046-.955-.09-1.4-.13l.318.623c3.021-5.109,5.881-9.949,8.439-14.276l-.351.182c6.878.508,12.7.872,16.856,1.125l4.869.286c1.144.061,1.775.086,1.808.063" transform="translate(1462.399 322.424)" fill="#263238"/>
    <rect id="Rectangle_289" data-name="Rectangle 289" width="29.201" height="9.422" transform="translate(1583.538 406.631)" fill="#22d2b0"/>
    <path id="Path_608" data-name="Path 608" d="M92.75,154.419a4.009,4.009,0,0,0,.056-.69c.017-.518.04-1.137.065-1.881.038-1.72.088-4.018.148-6.851l-.27.27c6.955.09,17.466.144,29.2.144-.184-.184.416.414-.412-.412v1.219l0,1.21q0,1.207,0,2.387c0,1.574.006,3.113.008,4.6l.4-.4c-8.316.021-15.554.107-20.763.186l-6.146.113a22.582,22.582,0,0,0-2.291.1,16.327,16.327,0,0,0,2.107.1l6.054.113c5.189.079,12.552.165,21.039.186h.4v-.4c0-1.491.006-3.029.01-4.6q0-1.179,0-2.387V145c-.826-.828-.23-.23-.416-.414-11.732,0-22.243.056-29.2.144l-.274,0,0,.266c.061,2.9.111,5.251.148,7.012a20.537,20.537,0,0,0,.121,2.41" transform="translate(1490.788 261.634)" fill="#263238"/>
    <g id="Group_160514" data-name="Group 160514" transform="translate(1612.739 334.133)" opacity="0.3">
      <g id="Group_160513" data-name="Group 160513">
        <g id="Group_160512" data-name="Group 160512" clip-path="url(#clip-path-7)">
          <path id="Path_609" data-name="Path 609" d="M94.281,110.083,89.8,116.265s1.252,93.75,6.014,117.033Z" transform="translate(-89.797 -110.083)"/>
        </g>
      </g>
    </g>
  </g>
</svg>
